<svg width="24" height="24" viewBox="0 0 24 24" fill="none" xmlns="http://www.w3.org/2000/svg">
<g id="Person--Streamline-Ionic-Filled">
<path id="Vector" d="M16.0242 1.95044C15.0025 0.84744 13.5755 0.23999 12.0006 0.23999C10.4171 0.23999 8.98548 0.84374 7.96858 1.93994C6.94063 3.04819 6.43978 4.55439 6.55738 6.18089C6.79043 9.38969 9.23223 12 12.0006 12C14.7688 12 17.2064 9.39019 17.4432 6.18194C17.5624 4.57019 17.0584 3.06709 16.0242 1.95044Z" fill="white"/>
<path id="Vector_2" d="M21.2399 23.7599H2.75989C2.51799 23.7631 2.27844 23.7122 2.05869 23.6112C1.83889 23.5101 1.64444 23.3613 1.48939 23.1756C1.14814 22.7677 1.01059 22.2106 1.11244 21.6473C1.55554 19.1893 2.93839 17.1244 5.11194 15.6749C7.04289 14.3882 9.48884 13.6799 11.9999 13.6799C14.5109 13.6799 16.9569 14.3887 18.8879 15.6749C21.0614 17.1239 22.4442 19.1887 22.8873 21.6468C22.9892 22.2101 22.8516 22.7672 22.5104 23.1751C22.3554 23.3609 22.1609 23.5097 21.9412 23.6109C21.7214 23.7121 21.4818 23.763 21.2399 23.7599Z" fill="white"/>
</g>
</svg>
