<svg width="40" height="40" viewBox="0 0 40 40" fill="none" xmlns="http://www.w3.org/2000/svg">
<rect width="40" height="40" rx="8" fill="#1616A1"/>
<path d="M19.4185 28.8182V10.6364H20.5833V28.8182H19.4185ZM23.339 16.0909C23.2537 15.3712 22.9081 14.8125 22.302 14.4148C21.696 14.017 20.9526 13.8182 20.0719 13.8182C19.428 13.8182 18.8645 13.9223 18.3816 14.1307C17.9034 14.339 17.5293 14.6255 17.2594 14.9901C16.9943 15.3546 16.8617 15.7689 16.8617 16.233C16.8617 16.6212 16.954 16.955 17.1387 17.2344C17.3281 17.509 17.5695 17.7386 17.8631 17.9233C18.1567 18.1032 18.4644 18.2524 18.7864 18.3707C19.1084 18.4844 19.4043 18.5767 19.6742 18.6477L21.1515 19.0455C21.5302 19.1449 21.9516 19.2822 22.4157 19.4574C22.8844 19.6326 23.3319 19.8717 23.758 20.1747C24.1889 20.473 24.544 20.8565 24.8233 21.3253C25.1027 21.794 25.2424 22.3693 25.2424 23.0511C25.2424 23.8371 25.0364 24.5473 24.6245 25.1818C24.2173 25.8163 23.6207 26.3205 22.8347 26.6946C22.0534 27.0687 21.1041 27.2557 19.9867 27.2557C18.945 27.2557 18.043 27.0876 17.2807 26.7514C16.5231 26.4152 15.9266 25.9465 15.4909 25.3452C15.0601 24.7438 14.8162 24.0455 14.7594 23.25H16.5776C16.6249 23.7992 16.8096 24.2538 17.1316 24.6136C17.4583 24.9687 17.8702 25.2339 18.3674 25.4091C18.8693 25.5795 19.409 25.6648 19.9867 25.6648C20.659 25.6648 21.2627 25.5559 21.7978 25.3381C22.3328 25.1155 22.7566 24.8078 23.0691 24.4148C23.3816 24.017 23.5378 23.553 23.5378 23.0227C23.5378 22.5398 23.4029 22.1468 23.133 21.8438C22.8631 21.5407 22.508 21.2945 22.0676 21.1051C21.6273 20.9157 21.1515 20.75 20.6401 20.608L18.8503 20.0966C17.714 19.7699 16.8143 19.3035 16.1515 18.6974C15.4886 18.0914 15.1571 17.2983 15.1571 16.3182C15.1571 15.5038 15.3773 14.7936 15.8176 14.1875C16.2627 13.5767 16.8593 13.1032 17.6074 12.767C18.3603 12.4261 19.2007 12.2557 20.1287 12.2557C21.0662 12.2557 21.8996 12.4238 22.6287 12.7599C23.3579 13.0914 23.9355 13.5459 24.3617 14.1236C24.7926 14.7012 25.0198 15.357 25.0435 16.0909H23.339Z" fill="white"/>
</svg>
