<svg width="40" height="40" viewBox="0 0 40 40" fill="none" xmlns="http://www.w3.org/2000/svg">
<rect width="40" height="40" rx="8" fill="#3683C2"/>
<path d="M23.3335 12.5H10.8335V23.3333H23.3335V12.5Z" stroke="white" stroke-width="1.5" stroke-linecap="round" stroke-linejoin="round"/>
<path d="M23.3335 16.6667H26.6668L29.1668 19.1667V23.3334H23.3335V16.6667Z" stroke="white" stroke-width="1.5" stroke-linecap="round" stroke-linejoin="round"/>
<path d="M14.5833 27.4999C15.7339 27.4999 16.6667 26.5672 16.6667 25.4166C16.6667 24.266 15.7339 23.3333 14.5833 23.3333C13.4327 23.3333 12.5 24.266 12.5 25.4166C12.5 26.5672 13.4327 27.4999 14.5833 27.4999Z" stroke="white" stroke-width="1.5" stroke-linecap="round" stroke-linejoin="round"/>
<path d="M25.4168 27.4999C26.5674 27.4999 27.5002 26.5672 27.5002 25.4166C27.5002 24.266 26.5674 23.3333 25.4168 23.3333C24.2662 23.3333 23.3335 24.266 23.3335 25.4166C23.3335 26.5672 24.2662 27.4999 25.4168 27.4999Z" stroke="white" stroke-width="1.5" stroke-linecap="round" stroke-linejoin="round"/>
</svg>
