<svg width="40" height="40" viewBox="0 0 40 40" fill="none" xmlns="http://www.w3.org/2000/svg">
<rect width="40" height="40" rx="8" fill="#DF1A52"/>
<path d="M26.2112 16.8965H19.3147C19.1317 16.8965 18.9563 16.9691 18.827 17.0985C18.6977 17.2278 18.625 17.4032 18.625 17.5861V20.3448C18.6266 21.3217 18.9736 22.2667 19.6046 23.0126C20.2357 23.7584 21.1101 24.2572 22.0733 24.4206V28.6206H20.0043V29.9999H25.5216V28.6206H23.4526V24.4206C24.4158 24.2572 25.2902 23.7584 25.9212 23.0126C26.5522 22.2667 26.8992 21.3217 26.9009 20.3448V17.5861C26.9009 17.4032 26.8282 17.2278 26.6989 17.0985C26.5695 16.9691 26.3941 16.8965 26.2112 16.8965ZM25.5216 20.3448C25.5216 21.0764 25.2309 21.7781 24.7136 22.2954C24.1962 22.8127 23.4946 23.1034 22.7629 23.1034C22.0313 23.1034 21.3296 22.8127 20.8123 22.2954C20.295 21.7781 20.0043 21.0764 20.0043 20.3448V18.2758H25.5216V20.3448Z" fill="white"/>
<path d="M19.3145 10H15.8662C15.6833 10 15.5079 10.0727 15.3785 10.202C15.2492 10.3313 15.1765 10.5067 15.1765 10.6897V15.7728C14.5064 16.1654 13.9583 16.7361 13.5931 17.4214C13.2278 18.1068 13.0598 18.88 13.1076 19.6552V29.3103C13.1076 29.4933 13.1802 29.6687 13.3096 29.798C13.4389 29.9273 13.6143 30 13.7972 30H17.2455V28.6207H14.4869V19.6552C14.4869 17.4569 16.0255 16.8828 16.0844 16.8612L16.5558 16.7039V11.3793H18.6248V14.8276H20.0041V10.6897C20.0041 10.5067 19.9315 10.3313 19.8021 10.202C19.6728 10.0727 19.4974 10 19.3145 10Z" fill="white"/>
</svg>
