<svg width="10" height="17" viewBox="0 0 10 17" fill="none" xmlns="http://www.w3.org/2000/svg">
<path d="M2.43931 8.49459L9.01982 15.0751C9.24364 15.2989 9.35183 15.5638 9.34437 15.8697C9.3369 16.1756 9.22126 16.4404 8.99743 16.6643C8.77361 16.8881 8.50875 17 8.20285 17C7.89695 17 7.63209 16.8881 7.40826 16.6643L0.536783 9.7704C0.357721 9.59134 0.223426 9.38989 0.133895 9.16607C0.0443642 8.94224 -0.000400845 8.71841 -0.000400845 8.49459C-0.000400845 8.27076 0.0443642 8.04693 0.133895 7.82311C0.223426 7.59928 0.357721 7.39783 0.536783 7.21877L7.43065 0.32491C7.65447 0.101084 7.9156 -0.00710027 8.21404 0.000360624C8.51248 0.00782151 8.77361 0.123466 8.99743 0.347293C9.22126 0.571119 9.33317 0.835982 9.33317 1.14188C9.33317 1.44777 9.22126 1.71264 8.99743 1.93646L2.43931 8.49459Z" fill="black"/>
</svg>
