<svg width="24" height="25" viewBox="0 0 24 25" fill="none" xmlns="http://www.w3.org/2000/svg">
<path d="M11.9988 19.25C11.5539 19.25 11.1189 19.382 10.7489 19.6292C10.3789 19.8764 10.0906 20.2277 9.9203 20.6388C9.75 21.0499 9.70545 21.5023 9.79225 21.9387C9.87905 22.3751 10.0933 22.776 10.408 23.0907C10.7226 23.4053 11.1235 23.6196 11.5599 23.7064C11.9963 23.7932 12.4487 23.7486 12.8598 23.5784C13.2709 23.4081 13.6222 23.1197 13.8695 22.7497C14.1167 22.3798 14.2486 21.9448 14.2486 21.4998C14.2486 20.9031 14.0116 20.3309 13.5897 19.909C13.1677 19.4871 12.5955 19.25 11.9988 19.25Z" fill="black"/>
<path d="M11.9988 13.25C11.5539 13.25 11.1189 13.382 10.7489 13.6292C10.3789 13.8764 10.0906 14.2278 9.9203 14.6389C9.75 15.05 9.70545 15.5023 9.79225 15.9387C9.87905 16.3751 10.0933 16.776 10.408 17.0907C10.7226 17.4053 11.1235 17.6196 11.5599 17.7064C11.9963 17.7932 12.4487 17.7486 12.8598 17.5784C13.2709 17.4081 13.6222 17.1197 13.8695 16.7497C14.1167 16.3798 14.2486 15.9448 14.2486 15.4998C14.2486 14.9031 14.0116 14.3309 13.5897 13.9089C13.1677 13.487 12.5955 13.25 11.9988 13.25Z" fill="black"/>
<path d="M11.9988 7.25C11.5539 7.25 11.1189 7.38195 10.7489 7.62915C10.3789 7.8764 10.0906 8.22775 9.9203 8.63885C9.75 9.04995 9.70545 9.5023 9.79225 9.9387C9.87905 10.3751 10.0933 10.776 10.408 11.0906C10.7226 11.4053 11.1235 11.6196 11.5599 11.7064C11.9963 11.7932 12.4487 11.7486 12.8598 11.5784C13.2709 11.4081 13.6222 11.1197 13.8695 10.7497C14.1167 10.3797 14.2486 9.9448 14.2486 9.4998C14.2486 8.90315 14.0116 8.3309 13.5897 7.90895C13.1677 7.48705 12.5955 7.25 11.9988 7.25Z" fill="black"/>
<path d="M11.9988 1.25C11.5539 1.25 11.1189 1.38195 10.7489 1.62916C10.3789 1.87638 10.0906 2.22774 9.9203 2.63884C9.75 3.04993 9.70545 3.5023 9.79225 3.93871C9.87905 4.37513 10.0933 4.77601 10.408 5.09065C10.7226 5.40529 11.1235 5.6196 11.5599 5.7064C11.9963 5.7932 12.4487 5.7486 12.8598 5.57835C13.2709 5.40806 13.6222 5.11971 13.8695 4.74973C14.1167 4.37975 14.2486 3.94477 14.2486 3.4998C14.2486 2.90312 14.0116 2.33087 13.5897 1.90895C13.1677 1.48703 12.5955 1.25 11.9988 1.25Z" fill="black"/>
<path d="M17.9988 13.25C17.5539 13.25 17.1189 13.382 16.7489 13.6292C16.3789 13.8764 16.0906 14.2278 15.9203 14.6389C15.75 15.05 15.7054 15.5023 15.7922 15.9387C15.879 16.3751 16.0933 16.776 16.408 17.0907C16.7226 17.4053 17.1235 17.6196 17.5599 17.7064C17.9963 17.7932 18.4487 17.7486 18.8598 17.5784C19.2709 17.4081 19.6222 17.1197 19.8695 16.7497C20.1167 16.3798 20.2486 15.9448 20.2486 15.4998C20.2486 14.9031 20.0116 14.3309 19.5897 13.9089C19.1677 13.487 18.5955 13.25 17.9988 13.25Z" fill="black"/>
<path d="M17.9988 7.25C17.5539 7.25 17.1189 7.38195 16.7489 7.62915C16.3789 7.8764 16.0906 8.22775 15.9203 8.63885C15.75 9.04995 15.7054 9.5023 15.7922 9.9387C15.879 10.3751 16.0933 10.776 16.408 11.0906C16.7226 11.4053 17.1235 11.6196 17.5599 11.7064C17.9963 11.7932 18.4487 11.7486 18.8598 11.5784C19.2709 11.4081 19.6222 11.1197 19.8695 10.7497C20.1167 10.3797 20.2486 9.9448 20.2486 9.4998C20.2486 8.90315 20.0116 8.3309 19.5897 7.90895C19.1677 7.48705 18.5955 7.25 17.9988 7.25Z" fill="black"/>
<path d="M17.9988 1.25C17.5539 1.25 17.1189 1.38195 16.7489 1.62916C16.3789 1.87638 16.0906 2.22774 15.9203 2.63884C15.75 3.04993 15.7054 3.5023 15.7922 3.93871C15.879 4.37513 16.0933 4.77601 16.408 5.09065C16.7226 5.40529 17.1235 5.6196 17.5599 5.7064C17.9963 5.7932 18.4487 5.7486 18.8598 5.57835C19.2709 5.40806 19.6222 5.11971 19.8695 4.74973C20.1167 4.37975 20.2486 3.94477 20.2486 3.4998C20.2486 2.90312 20.0116 2.33087 19.5897 1.90895C19.1677 1.48703 18.5955 1.25 17.9988 1.25Z" fill="black"/>
<path d="M5.99881 13.25C5.55386 13.25 5.11886 13.382 4.74892 13.6292C4.37893 13.8764 4.09056 14.2278 3.92028 14.6389C3.75 15.05 3.70544 15.5023 3.79225 15.9387C3.87906 16.3751 4.09334 16.776 4.40798 17.0907C4.72263 17.4053 5.12351 17.6196 5.55991 17.7064C5.99636 17.7932 6.44871 17.7486 6.85981 17.5784C7.27091 17.4081 7.62226 17.1197 7.86951 16.7497C8.11671 16.3798 8.24861 15.9448 8.24861 15.4998C8.24861 14.9031 8.01161 14.3309 7.58966 13.9089C7.16776 13.487 6.59551 13.25 5.99881 13.25Z" fill="black"/>
<path d="M5.99881 7.25C5.55386 7.25 5.11886 7.38195 4.74892 7.62915C4.37893 7.8764 4.09056 8.22775 3.92028 8.63885C3.75 9.04995 3.70544 9.5023 3.79225 9.9387C3.87906 10.3751 4.09334 10.776 4.40798 11.0906C4.72263 11.4053 5.12351 11.6196 5.55991 11.7064C5.99636 11.7932 6.44871 11.7486 6.85981 11.5784C7.27091 11.4081 7.62226 11.1197 7.86951 10.7497C8.11671 10.3797 8.24861 9.9448 8.24861 9.4998C8.24861 8.90315 8.01161 8.3309 7.58966 7.90895C7.16776 7.48705 6.59551 7.25 5.99881 7.25Z" fill="black"/>
<path d="M5.99881 1.25C5.55386 1.25 5.11886 1.38195 4.74892 1.62916C4.37893 1.87638 4.09056 2.22774 3.92028 2.63884C3.75 3.04993 3.70544 3.5023 3.79225 3.93871C3.87906 4.37513 4.09334 4.77601 4.40798 5.09065C4.72263 5.40529 5.12351 5.6196 5.55991 5.7064C5.99636 5.7932 6.44871 5.7486 6.85981 5.57835C7.27091 5.40806 7.62226 5.11971 7.86951 4.74973C8.11671 4.37975 8.24861 3.94477 8.24861 3.4998C8.24861 2.90312 8.01161 2.33087 7.58966 1.90895C7.16776 1.48703 6.59551 1.25 5.99881 1.25Z" fill="black"/>
</svg>
