<svg width="80" height="80" viewBox="0 0 80 80" fill="none" xmlns="http://www.w3.org/2000/svg">
<rect width="80" height="80" rx="40" fill="#7CBA27"/>
<path d="M24.0713 45.5397L20.6929 42.3202C20.3781 42.0226 20.127 41.6645 19.9557 41.2688C19.7845 40.8731 19.6968 40.4486 19.6983 40.0224C19.6998 39.5963 19.7905 39.1779 19.9646 38.7941C20.1387 38.4102 20.3922 38.0694 20.7091 37.7934C24.2877 34.7921 28.5477 32.6928 33.1467 31.6643C37.39 30.6735 41.8285 30.635 46.1471 31.5514C50.8436 32.5056 55.2829 34.5446 59.1053 37.5033C59.4427 37.7727 59.7224 38.1077 59.9265 38.4869C60.1306 38.866 60.2547 39.2811 60.2908 39.7056C60.327 40.13 60.2744 40.5547 60.1364 40.9524C59.9985 41.3502 59.7781 41.7123 59.4895 42.0158L56.3677 45.2917C55.8681 45.8267 55.185 46.1561 54.4457 46.2183C53.7064 46.2805 52.9614 46.0713 52.3496 45.6298C51.1366 44.7378 49.8307 43.9826 48.4567 43.3786C47.9136 43.1414 47.4453 42.7558 47.1071 42.2674C46.769 41.779 46.5752 41.2082 46.5488 40.6229L46.4402 37.8732C42.1395 36.741 37.6481 36.78 33.4398 37.9861L33.5484 40.7358C33.5683 41.3212 33.4197 41.8949 33.1204 42.3888C32.8211 42.8828 32.3835 43.2763 31.8595 43.5228C30.5342 44.1502 29.2888 44.9275 28.1472 45.84C27.5645 46.2969 26.8273 46.5188 26.0758 46.4634C25.3243 46.408 24.6109 46.0793 24.0713 45.5397Z" fill="white" stroke="white" stroke-width="2" stroke-linecap="round" stroke-linejoin="round"/>
</svg>
