<svg width="80" height="80" viewBox="0 0 80 80" fill="none" xmlns="http://www.w3.org/2000/svg">
<rect width="80" height="80" rx="40" fill="#C01717"/>
<path d="M54.9991 47.7095V52.3762C55.0008 52.8094 54.9147 53.2383 54.7464 53.6352C54.5781 54.0322 54.3313 54.3885 54.0217 54.6814C53.7122 54.9742 53.3467 55.1972 52.9488 55.336C52.5508 55.4748 52.1292 55.5264 51.7108 55.4874C47.0692 54.9672 42.6106 53.3316 38.6934 50.7117C35.0488 48.3234 31.9589 45.1368 29.643 41.3782C27.0938 37.32 25.5074 32.6996 25.0122 27.8913C24.9745 27.4612 25.0241 27.0276 25.1578 26.6183C25.2915 26.2089 25.5063 25.8328 25.7887 25.5138C26.0711 25.1948 26.4148 24.9399 26.7979 24.7654C27.181 24.5909 27.5951 24.5006 28.0139 24.5002L32.5391 24.5002C33.2711 24.4927 33.9808 24.7601 34.5359 25.2523C35.0909 25.7446 35.4534 26.4282 35.5559 27.1758C35.7469 28.6692 36.1011 30.1356 36.6118 31.5469C36.8147 32.1037 36.8586 32.7088 36.7383 33.2906C36.618 33.8723 36.3385 34.4063 35.933 34.8292L34.0173 36.8048C36.1646 40.6993 39.2914 43.9239 43.0677 46.1383L44.9833 44.1627C45.3935 43.7445 45.9112 43.4563 46.4753 43.3322C47.0394 43.2081 47.6262 43.2534 48.1661 43.4627C49.5346 43.9894 50.9565 44.3546 52.4046 44.5516C53.1374 44.6582 53.8065 45.0388 54.2849 45.6211C54.7633 46.2033 55.0174 46.9466 54.9991 47.7095Z" fill="white" stroke="white" stroke-width="2" stroke-linecap="round" stroke-linejoin="round"/>
</svg>
